<?xml version="1.0" encoding="UTF-8"?>
<svg viewBox="100 100 328 328" version="1.1" xmlns="http://www.w3.org/2000/svg" xmlns:xlink="http://www.w3.org/1999/xlink">
    <!-- Generator: Sketch 46.2 (44496) - http://www.bohemiancoding.com/sketch -->
    <title>flux_logo_square</title>
    <desc>Created with Sketch.</desc>
    <defs></defs>
    <g id="Page-1" stroke="none" stroke-width="1" fill="none" fill-rule="evenodd">
        <g id="flux_logo_square">
            <rect id="Background" fill="#5F259F" x="0" y="0" width="528" height="528"></rect>
            <g id="Logo" transform="translate(102.960000, 150.480000)" fill="#FFFFFF">
                <path d="M299.137924,129.4128 L162.668237,129.4128 C152.10974,129.4128 143.150744,136.118324 139.816955,145.463257 C136.487659,154.812648 127.474747,161.513714 116.911758,161.513714 L24.2620764,161.513714 C10.8595257,161.513714 5.68434189e-14,172.294271 5.68434189e-14,185.593858 L5.68434189e-14,201.639856 C5.68434189e-14,214.939443 10.8595257,225.72 24.2620764,225.72 L95.3319885,225.72 C105.91295,225.72 114.880932,218.987725 118.201242,209.616042 C121.54851,200.288943 130.547943,193.614628 141.09296,193.614628 L299.137924,193.614628 C312.535981,193.614628 323.4,182.834071 323.4,169.538942 L323.4,153.488485 C323.4,140.193357 312.535981,129.4128 299.137924,129.4128" id="bar-bottom"></path>
                <path d="M296.191412,0 C309.552025,0 320.37757,10.7805569 320.37757,24.0712269 L320.37757,40.1261423 C320.37757,53.4212708 309.552025,64.2018277 296.191412,64.2018277 L181.643083,64.1973692 C171.063878,64.1973692 162.047816,70.9519365 158.76029,80.3682046 C155.40558,89.6507188 146.50597,96.3072 136.020823,96.3072 L54.4104567,96.3072 C41.054323,96.3072 30.2242991,85.5266431 30.2242991,72.2270562 L30.2242991,56.1765992 C30.2242991,42.8770123 41.054323,32.1009138 54.4104567,32.1009138 L157.533067,32.1009138 C168.089876,32.1009138 177.096981,25.3641804 180.397943,15.9746631 C183.743695,6.66985654 192.652263,0 203.150847,0 L296.191412,0 Z" id="bar-top"></path>
            </g>
        </g>
    </g>
</svg>
